<svg width="34" height="34" viewBox="0 0 34 34" fill="none" xmlns="http://www.w3.org/2000/svg">
<mask id="mask0_860_2314" style="mask-type:alpha" maskUnits="userSpaceOnUse" x="0" y="0" width="34" height="34">
<rect width="34" height="34" fill="#D9D9D9"/>
</mask>
<g mask="url(#mask0_860_2314)">
<path d="M14.9459 23.4694L24.957 13.4583L23.2098 11.7346L14.9459 19.9986L10.7667 15.8194L9.04309 17.543L14.9459 23.4694ZM17 31.1666C15.0561 31.1666 13.2223 30.7947 11.4987 30.051C9.77505 29.3072 8.2718 28.2939 6.98892 27.0111C5.70606 25.7282 4.69275 24.2249 3.949 22.5013C3.20525 20.7777 2.83337 18.9439 2.83337 16.9999C2.83337 15.0402 3.20525 13.1985 3.949 11.4749C4.69275 9.75132 5.70606 8.25201 6.98892 6.97701C8.2718 5.70201 9.77505 4.69264 11.4987 3.94889C13.2223 3.20514 15.0561 2.83326 17 2.83326C18.9598 2.83326 20.8014 3.20514 22.525 3.94889C24.2487 4.69264 25.748 5.70201 27.023 6.97701C28.298 8.25201 29.3073 9.75132 30.0511 11.4749C30.7948 13.1985 31.1667 15.0402 31.1667 16.9999C31.1667 18.9439 30.7948 20.7777 30.0511 22.5013C29.3073 24.2249 28.298 25.7282 27.023 27.0111C25.748 28.2939 24.2487 29.3072 22.525 30.051C20.8014 30.7947 18.9598 31.1666 17 31.1666Z" fill="#AEBAD4"/>
</g>
</svg>
