<svg width="19" height="19" viewBox="0 0 19 19" fill="none" xmlns="http://www.w3.org/2000/svg">
<path d="M16.6336 3.16413L14.3885 5.40925L15.9518 6.97256C16.0471 7.06792 16.1121 7.18941 16.1384 7.32167C16.1647 7.45393 16.1511 7.59102 16.0995 7.7156C16.0479 7.84018 15.9605 7.94667 15.8484 8.02159C15.7363 8.09651 15.6045 8.13651 15.4696 8.13652H11.3787C11.1979 8.13652 11.0245 8.06468 10.8966 7.93682C10.7688 7.80895 10.6969 7.63553 10.6969 7.45471V3.3638C10.6969 3.22895 10.7369 3.09714 10.8119 2.98502C10.8868 2.8729 10.9933 2.78551 11.1178 2.73391C11.2424 2.6823 11.3795 2.66879 11.5118 2.69509C11.644 2.72139 11.7655 2.78631 11.8609 2.88165L13.4242 4.44496L15.6693 2.19983C15.7326 2.13652 15.8078 2.08629 15.8905 2.05203C15.9733 2.01776 16.0619 2.00012 16.1515 2.00012C16.241 2.00012 16.3297 2.01776 16.4124 2.05203C16.4951 2.08629 16.5703 2.13652 16.6336 2.19983C16.6969 2.26315 16.7472 2.33832 16.7814 2.42105C16.8157 2.50377 16.8333 2.59244 16.8333 2.68198C16.8333 2.77153 16.8157 2.8602 16.7814 2.94292C16.7472 3.02565 16.6969 3.10082 16.6336 3.16413ZM7.28784 10.8638H3.19693C3.06208 10.8638 2.93027 10.9038 2.81815 10.9787C2.70603 11.0537 2.61864 11.1601 2.56704 11.2847C2.51543 11.4093 2.50192 11.5464 2.52822 11.6786C2.55452 11.8109 2.61944 11.9324 2.71478 12.0278L4.27809 13.5911L2.03296 15.8362C1.96965 15.8995 1.91942 15.9747 1.88516 16.0574C1.85089 16.1401 1.83325 16.2288 1.83325 16.3183C1.83325 16.4079 1.85089 16.4965 1.88516 16.5793C1.91942 16.662 1.96965 16.7372 2.03296 16.8005C2.16084 16.9284 2.33427 17.0002 2.51511 17.0002C2.60466 17.0002 2.69332 16.9826 2.77605 16.9483C2.85878 16.914 2.93395 16.8638 2.99726 16.8005L5.24238 14.5554L6.80569 16.1187C6.90105 16.214 7.02254 16.2789 7.1548 16.3052C7.28706 16.3315 7.42415 16.318 7.54873 16.2664C7.67331 16.2148 7.7798 16.1274 7.85472 16.0153C7.92964 15.9032 7.96964 15.7714 7.96965 15.6365V11.5456C7.96965 11.3648 7.89781 11.1914 7.76995 11.0635C7.64208 10.9356 7.46866 10.8638 7.28784 10.8638Z" fill="white"/>
</svg>
