<svg width="19" height="19" viewBox="0 0 19 19" fill="none" xmlns="http://www.w3.org/2000/svg">
<path d="M17.1666 9.5H11.9166C11.4298 9.5 10.9561 9.34212 10.5666 9.05L8.76663 7.7C8.37715 7.4079 7.90346 7.25 7.41663 7.25H2.16663" stroke="white" stroke-width="0.84375" stroke-linecap="round" stroke-linejoin="round"/>
<path d="M2.91663 7.25V8.75C2.91663 11.5784 2.91663 12.9927 3.7953 13.8713C4.67399 14.75 6.0882 14.75 8.91663 14.75H11.1666C13.2733 14.75 14.3267 14.75 15.0834 14.2444C15.4109 14.0255 15.6921 13.7442 15.9111 13.4167C16.4166 12.66 16.4166 11.6067 16.4166 9.5" stroke="white" stroke-width="0.84375" stroke-linecap="round" stroke-linejoin="round"/>
<path d="M14.1666 14.75V16.25M5.16663 14.75V16.25" stroke="white" stroke-width="0.84375" stroke-linecap="round" stroke-linejoin="round"/>
<path d="M4.41663 7.25V3.875C4.41663 3.25368 4.9203 2.75 5.54163 2.75C6.16295 2.75 6.66663 3.25368 6.66663 3.875V4.25" stroke="white" stroke-width="0.84375" stroke-linecap="round" stroke-linejoin="round"/>
</svg>
