<svg width="17" height="17" viewBox="0 0 17 17" fill="none" xmlns="http://www.w3.org/2000/svg">
<path d="M14.3438 11.763V5.23711C14.7062 5.14417 15.0376 4.95698 15.3043 4.69455C15.5711 4.43212 15.7636 4.10379 15.8624 3.7429C15.9611 3.38201 15.9627 3.0014 15.8668 2.63972C15.7709 2.27804 15.5811 1.94817 15.3165 1.68359C15.0519 1.41901 14.7221 1.22915 14.3604 1.13328C13.9987 1.03742 13.6181 1.03895 13.2572 1.13774C12.8963 1.23653 12.568 1.42905 12.3056 1.69576C12.0431 1.96246 11.8559 2.29386 11.763 2.6563H5.23711C5.14417 2.29386 4.95698 1.96246 4.69455 1.69576C4.43212 1.42905 4.10379 1.23653 3.7429 1.13774C3.38201 1.03895 3.0014 1.03742 2.63972 1.13328C2.27804 1.22915 1.94817 1.41901 1.68359 1.68359C1.41901 1.94817 1.22915 2.27804 1.13328 2.63972C1.03742 3.0014 1.03895 3.38201 1.13774 3.7429C1.23653 4.10379 1.42905 4.43212 1.69576 4.69455C1.96246 4.95698 2.29386 5.14417 2.6563 5.23711V11.763C2.29386 11.8559 1.96246 12.0431 1.69576 12.3056C1.42905 12.568 1.23653 12.8963 1.13774 13.2572C1.03895 13.6181 1.03742 13.9987 1.13328 14.3604C1.22915 14.7221 1.41901 15.0519 1.68359 15.3165C1.94817 15.5811 2.27804 15.7709 2.63972 15.8668C3.0014 15.9627 3.38201 15.9611 3.7429 15.8624C4.10379 15.7636 4.43212 15.5711 4.69455 15.3043C4.95698 15.0376 5.14417 14.7062 5.23711 14.3438H11.763C11.8559 14.7062 12.0431 15.0376 12.3056 15.3043C12.568 15.5711 12.8963 15.7636 13.2572 15.8624C13.6181 15.9611 13.9987 15.9627 14.3604 15.8668C14.7221 15.7709 15.0519 15.5811 15.3165 15.3165C15.5811 15.0519 15.7709 14.7221 15.8668 14.3604C15.9627 13.9987 15.9611 13.6181 15.8624 13.2572C15.7636 12.8963 15.5711 12.568 15.3043 12.3056C15.0376 12.0431 14.7062 11.8559 14.3438 11.763ZM13.8126 2.12505C14.0227 2.12505 14.2281 2.18737 14.4028 2.30411C14.5776 2.42086 14.7138 2.5868 14.7942 2.78095C14.8746 2.9751 14.8956 3.18873 14.8546 3.39483C14.8136 3.60094 14.7124 3.79026 14.5639 3.93885C14.4153 4.08745 14.2259 4.18864 14.0198 4.22964C13.8137 4.27063 13.6001 4.24959 13.4059 4.16917C13.2118 4.08875 13.0459 3.95257 12.9291 3.77784C12.8124 3.60312 12.7501 3.39769 12.7501 3.18755C12.7504 2.90586 12.8624 2.63579 13.0616 2.43661C13.2608 2.23742 13.5309 2.12537 13.8126 2.12505ZM2.12505 3.18755C2.12505 2.97741 2.18737 2.77198 2.30411 2.59726C2.42086 2.42253 2.5868 2.28635 2.78095 2.20593C2.9751 2.12551 3.18873 2.10447 3.39483 2.14547C3.60094 2.18646 3.79026 2.28766 3.93885 2.43625C4.08745 2.58484 4.18864 2.77416 4.22964 2.98027C4.27063 3.18637 4.24959 3.40001 4.16917 3.59415C4.08875 3.7883 3.95257 3.95424 3.77784 4.07099C3.60312 4.18774 3.39769 4.25005 3.18755 4.25005C2.90584 4.24977 2.63576 4.13774 2.43656 3.93854C2.23736 3.73934 2.12533 3.46926 2.12505 3.18755ZM3.18755 14.8751C2.97741 14.8751 2.77198 14.8127 2.59726 14.696C2.42253 14.5792 2.28635 14.4133 2.20593 14.2192C2.12551 14.025 2.10447 13.8114 2.14547 13.6053C2.18646 13.3992 2.28766 13.2098 2.43625 13.0612C2.58484 12.9127 2.77416 12.8115 2.98027 12.7705C3.18637 12.7295 3.40001 12.7505 3.59415 12.8309C3.7883 12.9113 3.95424 13.0475 4.07099 13.2223C4.18774 13.397 4.25005 13.6024 4.25005 13.8126C4.24973 14.0942 4.13768 14.3643 3.93849 14.5635C3.73931 14.7627 3.46924 14.8747 3.18755 14.8751ZM11.763 13.2813H5.23711C5.14197 12.916 4.9511 12.5828 4.68421 12.3159C4.41732 12.049 4.08406 11.8581 3.7188 11.763V5.23711C4.08403 5.14192 4.41727 4.95104 4.68415 4.68415C4.95104 4.41727 5.14192 4.08403 5.23711 3.7188H11.763C11.8581 4.08406 12.049 4.41732 12.3159 4.68421C12.5828 4.9511 12.916 5.14197 13.2813 5.23711V11.763C12.916 11.8581 12.5828 12.049 12.3159 12.3159C12.049 12.5828 11.8581 12.916 11.763 13.2813ZM13.8126 14.8751C13.6024 14.8751 13.397 14.8127 13.2223 14.696C13.0475 14.5792 12.9113 14.4133 12.8309 14.2192C12.7505 14.025 12.7295 13.8114 12.7705 13.6053C12.8115 13.3992 12.9127 13.2098 13.0612 13.0612C13.2098 12.9127 13.3992 12.8115 13.6053 12.7705C13.8114 12.7295 14.025 12.7505 14.2192 12.8309C14.4133 12.9113 14.5792 13.0475 14.696 13.2223C14.8127 13.397 14.8751 13.6024 14.8751 13.8126C14.8747 14.0942 14.7626 14.3643 14.5634 14.5634C14.3643 14.7626 14.0942 14.8747 13.8126 14.8751Z" fill="#AEBAD4"/>
</svg>
