<svg width="18" height="18" viewBox="0 0 18 18" fill="none" xmlns="http://www.w3.org/2000/svg">
<mask id="mask0_860_2449" style="mask-type:alpha" maskUnits="userSpaceOnUse" x="0" y="0" width="18" height="18">
<rect width="18" height="18" fill="#D9D9D9"/>
</mask>
<g mask="url(#mask0_860_2449)">
<path d="M6.72113 16.5447C6.14613 16.5447 5.63651 16.3827 5.19229 16.0586C4.74805 15.7346 4.42257 15.3052 4.21584 14.7706C4.03988 15.0283 3.80839 15.2266 3.52138 15.3656C3.23437 15.5045 2.93557 15.574 2.62498 15.574C2.04518 15.574 1.55649 15.3735 1.1589 14.9724C0.7613 14.5714 0.5625 14.0844 0.5625 13.5115C0.5625 13.0125 0.730287 12.5606 1.06586 12.1557C1.40144 11.7509 1.82596 11.5317 2.33942 11.4981C2.12596 11.2577 1.95913 10.986 1.83893 10.6832C1.71874 10.3803 1.65864 10.063 1.65864 9.73123C1.65864 9.27319 1.77354 8.84378 2.00334 8.44299C2.23316 8.04221 2.55527 7.71393 2.96968 7.45817C3.01798 7.62596 3.08318 7.8054 3.16528 7.9965C3.24738 8.1876 3.33795 8.35526 3.43699 8.49949C3.23314 8.65621 3.07641 8.84388 2.96679 9.06248C2.85717 9.28106 2.80236 9.51023 2.80236 9.74998C2.80236 10.4884 3.08986 10.9546 3.66486 11.1483C4.23986 11.3421 4.80765 11.4937 5.36824 11.6033L5.63072 12.0519C5.49322 12.4519 5.37808 12.7913 5.28529 13.0702C5.1925 13.349 5.14611 13.6033 5.14611 13.8332C5.14611 14.2543 5.29794 14.6228 5.60162 14.9387C5.90529 15.2546 6.27606 15.4125 6.71392 15.4125C7.21776 15.4125 7.63314 15.206 7.96007 14.793C8.28699 14.38 8.55527 13.8921 8.76489 13.3291C8.97451 12.7661 9.13604 12.1921 9.24951 11.607C9.36297 11.0219 9.45576 10.5586 9.52787 10.2173L10.6298 10.5173C10.5221 11.0461 10.3918 11.6562 10.2389 12.3476C10.086 13.0389 9.86991 13.6959 9.59059 14.3185C9.31126 14.9411 8.94372 15.4678 8.48796 15.8985C8.03219 16.3293 7.44325 16.5447 6.72113 16.5447ZM2.62498 14.449C2.88557 14.449 3.10697 14.3579 3.28918 14.1757C3.47139 13.9935 3.5625 13.7721 3.5625 13.5115C3.5625 13.2509 3.47139 13.0295 3.28918 12.8473C3.10697 12.6651 2.88557 12.574 2.62498 12.574C2.36441 12.574 2.14301 12.6651 1.9608 12.8473C1.77859 13.0295 1.68748 13.2509 1.68748 13.5115C1.68748 13.7721 1.77859 13.9935 1.9608 14.1757C2.14301 14.3579 2.36441 14.449 2.62498 14.449ZM7.56774 11.4216C7.02641 10.938 6.53338 10.4863 6.08867 10.0666C5.64396 9.64686 5.26067 9.23724 4.93883 8.83772C4.61696 8.43821 4.36961 8.03869 4.19676 7.63918C4.02391 7.23966 3.93748 6.82451 3.93748 6.39375C3.93748 5.63401 4.19754 4.99408 4.71767 4.47396C5.23779 3.95382 5.87772 3.69375 6.63746 3.69375C6.73074 3.69375 6.81416 3.69928 6.88772 3.71034C6.96127 3.72141 7.03507 3.73415 7.10912 3.74858C7.05431 3.62838 7.01199 3.50655 6.98218 3.3831C6.95238 3.25965 6.93748 3.13003 6.93748 2.99424C6.93748 2.42133 7.13792 1.93436 7.53879 1.53332C7.93967 1.13228 8.42644 0.931763 8.99912 0.931763C9.57179 0.931763 10.0588 1.13228 10.4603 1.53332C10.8617 1.93436 11.0624 2.42133 11.0624 2.99424C11.0624 3.13174 11.0475 3.25987 11.0177 3.37862C10.9879 3.49737 10.9456 3.61684 10.8908 3.73703C10.9649 3.7226 11.0387 3.71178 11.1122 3.70457C11.1858 3.69736 11.2692 3.69375 11.3625 3.69375C12.0211 3.69375 12.5877 3.89471 13.0622 4.29664C13.5367 4.69855 13.8384 5.20287 13.9672 5.80959C13.7958 5.78171 13.603 5.76776 13.3887 5.76776C13.1744 5.76776 12.9774 5.77786 12.7976 5.79806C12.686 5.51056 12.5038 5.27546 12.2509 5.09276C11.998 4.91008 11.7029 4.81873 11.3657 4.81873C10.9116 4.81873 10.5543 4.94325 10.2937 5.19229C10.0331 5.44133 9.68554 5.81681 9.25091 6.31873H8.73026C8.28314 5.79662 7.92929 5.41609 7.66871 5.17714C7.40814 4.9382 7.06439 4.81873 6.63746 4.81873C6.1834 4.81873 5.80738 4.96772 5.50941 5.26569C5.21143 5.56367 5.06244 5.93969 5.06244 6.39375C5.06244 6.68279 5.14009 6.98125 5.29537 7.28914C5.45066 7.59701 5.67122 7.92283 5.95704 8.26658C6.24287 8.61033 6.5895 8.97595 6.99694 9.36345C7.40439 9.75095 7.86196 10.1697 8.36966 10.6197L7.56774 11.4216ZM8.99996 3.93176C9.26054 3.93176 9.48194 3.84066 9.66416 3.65844C9.84638 3.47622 9.93748 3.25482 9.93748 2.99424C9.93748 2.73367 9.84638 2.51227 9.66416 2.33004C9.48194 2.14783 9.26054 2.05673 8.99996 2.05673C8.73939 2.05673 8.51799 2.14783 8.33576 2.33004C8.15355 2.51227 8.06244 2.73367 8.06244 2.99424C8.06244 3.25482 8.15355 3.47622 8.33576 3.65844C8.51799 3.84066 8.73939 3.93176 8.99996 3.93176ZM11.2456 16.5519C11.0192 16.5519 10.7953 16.5236 10.5739 16.4671C10.3526 16.4105 10.139 16.321 9.93315 16.1985C10.0367 16.0661 10.1402 15.91 10.2437 15.7303C10.3471 15.5505 10.4412 15.385 10.5259 15.2336C10.6502 15.3004 10.7745 15.3481 10.8988 15.3768C11.023 15.4054 11.1473 15.4197 11.2716 15.4197C11.7149 15.4197 12.0901 15.262 12.3973 14.9466C12.7045 14.6312 12.8581 14.2562 12.8581 13.8216C12.8581 13.5856 12.8117 13.3309 12.719 13.0576C12.6262 12.7842 12.511 12.4476 12.3735 12.0476L12.6432 11.599C13.2163 11.4894 13.7872 11.3365 14.356 11.1404C14.9247 10.9442 15.2091 10.4769 15.2091 9.73843C15.2091 9.18554 15.0103 8.77978 14.6127 8.52113C14.2151 8.26246 13.7735 8.13313 13.2879 8.13313C12.7734 8.13313 12.1732 8.22592 11.4872 8.41149C10.8011 8.59707 10.0038 8.8413 9.09516 9.14419L8.79516 8.04229C9.71246 7.74902 10.5337 7.50095 11.2589 7.29806C11.9841 7.09518 12.6499 6.99373 13.2562 6.99373C14.0658 6.99373 14.7812 7.23316 15.4023 7.71201C16.0235 8.19085 16.3341 8.86632 16.3341 9.73843C16.3341 10.0681 16.2752 10.3813 16.1574 10.678C16.0396 10.9747 15.874 11.2481 15.6605 11.4981C16.174 11.5365 16.5985 11.7557 16.9341 12.1557C17.2696 12.5557 17.4374 13.0077 17.4374 13.5115C17.4374 14.0788 17.2386 14.5644 16.841 14.9682C16.4434 15.3721 15.9547 15.574 15.3749 15.574C15.0644 15.574 14.7656 15.5045 14.4785 15.3656C14.1915 15.2266 13.96 15.0283 13.7841 14.7706C13.5774 15.3052 13.2495 15.7358 12.8004 16.0622C12.3514 16.3887 11.8331 16.5519 11.2456 16.5519ZM15.3937 14.449C15.6543 14.449 15.8725 14.3579 16.0485 14.1757C16.2245 13.9935 16.3124 13.7721 16.3124 13.5115C16.3124 13.2509 16.2213 13.0264 16.0391 12.8379C15.8569 12.6495 15.6355 12.5552 15.3749 12.5552C15.1144 12.5552 14.893 12.6464 14.7107 12.8286C14.5285 13.0108 14.4374 13.2322 14.4374 13.4928C14.4374 13.7533 14.5317 13.9779 14.7201 14.1663C14.9086 14.3548 15.1331 14.449 15.3937 14.449Z" fill="#AEBAD4"/>
</g>
</svg>
