<svg width="18" height="18" viewBox="0 0 18 18" fill="none" xmlns="http://www.w3.org/2000/svg">
<mask id="mask0_860_2454" style="mask-type:alpha" maskUnits="userSpaceOnUse" x="0" y="0" width="18" height="18">
<rect width="18" height="18" fill="#D9D9D9"/>
</mask>
<g mask="url(#mask0_860_2454)">
<path d="M3.98078 16.1249C3.60193 16.1249 3.28125 15.9937 3.01875 15.7312C2.75625 15.4687 2.625 15.148 2.625 14.7692V4.73076C2.625 4.35191 2.75625 4.03123 3.01875 3.76873C3.28125 3.50623 3.60193 3.37498 3.98078 3.37498H5.01924V1.78845H6.17306V3.37498H11.8557V1.78845H12.9807V3.37498H14.0192C14.398 3.37498 14.7187 3.50623 14.9812 3.76873C15.2437 4.03123 15.375 4.35191 15.375 4.73076V14.7692C15.375 15.148 15.2437 15.4687 14.9812 15.7312C14.7187 15.9937 14.398 16.1249 14.0192 16.1249H3.98078ZM3.98078 15H14.0192C14.0769 15 14.1298 14.9759 14.1779 14.9279C14.2259 14.8798 14.25 14.8269 14.25 14.7692V7.73076H3.74998V14.7692C3.74998 14.8269 3.77402 14.8798 3.82209 14.9279C3.87018 14.9759 3.92308 15 3.98078 15ZM3.74998 6.60578H14.25V4.73076C14.25 4.67306 14.2259 4.62016 14.1779 4.57208C14.1298 4.524 14.0769 4.49996 14.0192 4.49996H3.98078C3.92308 4.49996 3.87018 4.524 3.82209 4.57208C3.77402 4.62016 3.74998 4.67306 3.74998 4.73076V6.60578ZM8.99998 10.5577C8.81633 10.5577 8.65984 10.493 8.53052 10.3637C8.40119 10.2343 8.33653 10.0779 8.33653 9.89421C8.33653 9.71056 8.40119 9.55407 8.53052 9.42475C8.65984 9.29542 8.81633 9.23076 8.99998 9.23076C9.18363 9.23076 9.34012 9.29542 9.46944 9.42475C9.59877 9.55407 9.66343 9.71056 9.66343 9.89421C9.66343 10.0779 9.59877 10.2343 9.46944 10.3637C9.34012 10.493 9.18363 10.5577 8.99998 10.5577ZM5.99998 10.5577C5.81633 10.5577 5.65984 10.493 5.53052 10.3637C5.40119 10.2343 5.33653 10.0779 5.33653 9.89421C5.33653 9.71056 5.40119 9.55407 5.53052 9.42475C5.65984 9.29542 5.81633 9.23076 5.99998 9.23076C6.18363 9.23076 6.34012 9.29542 6.46944 9.42475C6.59877 9.55407 6.66343 9.71056 6.66343 9.89421C6.66343 10.0779 6.59877 10.2343 6.46944 10.3637C6.34012 10.493 6.18363 10.5577 5.99998 10.5577ZM12 10.5577C11.8163 10.5577 11.6598 10.493 11.5305 10.3637C11.4012 10.2343 11.3365 10.0779 11.3365 9.89421C11.3365 9.71056 11.4012 9.55407 11.5305 9.42475C11.6598 9.29542 11.8163 9.23076 12 9.23076C12.1836 9.23076 12.3401 9.29542 12.4694 9.42475C12.5988 9.55407 12.6634 9.71056 12.6634 9.89421C12.6634 10.0779 12.5988 10.2343 12.4694 10.3637C12.3401 10.493 12.1836 10.5577 12 10.5577ZM8.99998 13.5C8.81633 13.5 8.65984 13.4353 8.53052 13.306C8.40119 13.1767 8.33653 13.0202 8.33653 12.8365C8.33653 12.6529 8.40119 12.4964 8.53052 12.3671C8.65984 12.2377 8.81633 12.173 8.99998 12.173C9.18363 12.173 9.34012 12.2377 9.46944 12.3671C9.59877 12.4964 9.66343 12.6529 9.66343 12.8365C9.66343 13.0202 9.59877 13.1767 9.46944 13.306C9.34012 13.4353 9.18363 13.5 8.99998 13.5ZM5.99998 13.5C5.81633 13.5 5.65984 13.4353 5.53052 13.306C5.40119 13.1767 5.33653 13.0202 5.33653 12.8365C5.33653 12.6529 5.40119 12.4964 5.53052 12.3671C5.65984 12.2377 5.81633 12.173 5.99998 12.173C6.18363 12.173 6.34012 12.2377 6.46944 12.3671C6.59877 12.4964 6.66343 12.6529 6.66343 12.8365C6.66343 13.0202 6.59877 13.1767 6.46944 13.306C6.34012 13.4353 6.18363 13.5 5.99998 13.5ZM12 13.5C11.8163 13.5 11.6598 13.4353 11.5305 13.306C11.4012 13.1767 11.3365 13.0202 11.3365 12.8365C11.3365 12.6529 11.4012 12.4964 11.5305 12.3671C11.6598 12.2377 11.8163 12.173 12 12.173C12.1836 12.173 12.3401 12.2377 12.4694 12.3671C12.5988 12.4964 12.6634 12.6529 12.6634 12.8365C12.6634 13.0202 12.5988 13.1767 12.4694 13.306C12.3401 13.4353 12.1836 13.5 12 13.5Z" fill="#AEBAD4"/>
</g>
</svg>
