<svg width="22" height="22" viewBox="0 0 22 22" fill="none" xmlns="http://www.w3.org/2000/svg">
<mask id="mask0_860_2466" style="mask-type:alpha" maskUnits="userSpaceOnUse" x="0" y="0" width="22" height="22">
<rect width="22" height="22" fill="#D9D9D9"/>
</mask>
<g mask="url(#mask0_860_2466)">
<path d="M9.67075 15.1862L16.1485 8.70837L15.018 7.59309L9.67075 12.9403L6.96659 10.2362L5.8513 11.3514L9.67075 15.1862ZM10.9999 20.1667C9.74205 20.1667 8.55548 19.9261 7.4402 19.4448C6.32493 18.9636 5.35224 18.3079 4.52213 17.4778C3.69205 16.6477 3.03638 15.675 2.55513 14.5598C2.07388 13.4445 1.83325 12.2579 1.83325 11C1.83325 9.73199 2.07388 8.54032 2.55513 7.42504C3.03638 6.30976 3.69205 5.33962 4.52213 4.51462C5.35224 3.68962 6.32493 3.0365 7.4402 2.55525C8.55548 2.074 9.74205 1.83337 10.9999 1.83337C12.268 1.83337 13.4596 2.074 14.5749 2.55525C15.6902 3.0365 16.6603 3.68962 17.4853 4.51462C18.3103 5.33962 18.9635 6.30976 19.4447 7.42504C19.926 8.54032 20.1666 9.73199 20.1666 11C20.1666 12.2579 19.926 13.4445 19.4447 14.5598C18.9635 15.675 18.3103 16.6477 17.4853 17.4778C16.6603 18.3079 15.6902 18.9636 14.5749 19.4448C13.4596 19.9261 12.268 20.1667 10.9999 20.1667Z" fill="#4AB561"/>
</g>
</svg>
