<svg width="19" height="19" viewBox="0 0 19 19" fill="none" xmlns="http://www.w3.org/2000/svg">
<mask id="mask0_860_2439" style="mask-type:alpha" maskUnits="userSpaceOnUse" x="0" y="0" width="19" height="19">
<rect width="19" height="19" fill="#D9D9D9"/>
</mask>
<g mask="url(#mask0_860_2439)">
<path d="M8.43744 16.9448C7.84417 16.9448 7.39339 16.7681 7.08512 16.4148C6.77684 16.0615 6.6227 15.659 6.6227 15.2073C6.6227 14.9061 6.68843 14.6117 6.81987 14.3239C6.9513 14.0362 7.15759 13.7995 7.43873 13.6137C7.73408 13.4188 7.97589 13.1623 8.16418 12.8441C8.35245 12.5259 8.48719 12.1791 8.56838 11.8035C8.46384 11.7589 8.36057 11.7104 8.25856 11.6581C8.15656 11.6059 8.05988 11.5406 7.96854 11.4625L6.13246 12.1232C5.92339 12.1973 5.72272 12.2582 5.53046 12.3059C5.3382 12.3536 5.13994 12.3775 4.93566 12.3775C4.17863 12.3775 3.50933 12.0431 2.92776 11.3742C2.3462 10.7054 2.05542 9.72646 2.05542 8.43744C2.05542 7.84417 2.23162 7.39339 2.58402 7.08512C2.93641 6.77684 3.33213 6.6227 3.77118 6.6227C4.07872 6.6227 4.37838 6.68843 4.67018 6.81987C4.96197 6.9513 5.20074 7.15759 5.38648 7.43873C5.58135 7.73408 5.83788 7.97589 6.15608 8.16418C6.47426 8.35245 6.82112 8.48718 7.19666 8.56838C7.24133 8.46384 7.28979 8.36057 7.34205 8.25856C7.39433 8.15656 7.45954 8.05988 7.53769 7.96854L6.87697 6.13246C6.80287 5.92846 6.74197 5.72852 6.69427 5.53264C6.64656 5.33675 6.6227 5.1434 6.6227 4.95258C6.6227 4.12844 6.97921 3.43955 7.69223 2.8859C8.40523 2.33225 9.36207 2.05542 10.5628 2.05542C11.156 2.05542 11.6068 2.23125 11.9151 2.58291C12.2234 2.93457 12.3775 3.32946 12.3775 3.7676C12.3775 4.06737 12.3118 4.36443 12.1803 4.65876C12.0489 4.9531 11.8426 5.19313 11.5615 5.37886C11.2661 5.57374 11.0243 5.83154 10.836 6.15226C10.6477 6.47299 10.513 6.82112 10.4318 7.19666C10.5414 7.24639 10.6475 7.2979 10.7499 7.3512C10.8524 7.40447 10.9463 7.46664 11.0317 7.53769L12.8677 6.85718C13.0768 6.78308 13.2745 6.72548 13.4607 6.68437C13.6469 6.64326 13.8421 6.6227 14.0464 6.6227C15.0195 6.6227 15.7459 7.02919 16.2254 7.84217C16.705 8.65514 16.9448 9.562 16.9448 10.5627C16.9448 11.156 16.759 11.6068 16.3876 11.9151C16.0161 12.2234 15.604 12.3775 15.1513 12.3775C14.8611 12.3775 14.5787 12.3118 14.3041 12.1803C14.0296 12.0489 13.7995 11.8426 13.6137 11.5615C13.4188 11.2661 13.1623 11.0243 12.8441 10.836C12.5259 10.6477 12.1791 10.513 11.8035 10.4318C11.7589 10.5363 11.7104 10.6384 11.6581 10.7378C11.6059 10.8373 11.5407 10.9352 11.4625 11.0317L12.1232 12.8677C12.1959 13.0644 12.2564 13.2518 12.3048 13.4301C12.3533 13.6083 12.3775 13.7903 12.3775 13.976C12.3805 14.7474 12.0488 15.435 11.3823 16.0389C10.7157 16.6428 9.73413 16.9448 8.43744 16.9448ZM9.5019 10.8094C9.86609 10.8094 10.1751 10.6819 10.4288 10.427C10.6825 10.1721 10.8094 9.86249 10.8094 9.49829C10.8094 9.1341 10.6819 8.82514 10.427 8.57141C10.1721 8.31767 9.8625 8.1908 9.49829 8.1908C9.1341 8.1908 8.82514 8.31826 8.57141 8.57319C8.31767 8.82814 8.1908 9.1377 8.1908 9.5019C8.1908 9.86609 8.31826 10.175 8.57319 10.4288C8.82812 10.6825 9.13769 10.8094 9.5019 10.8094ZM8.52878 7.21495C8.64347 7.15811 8.76146 7.11472 8.88275 7.08478C9.00404 7.05483 9.12457 7.0358 9.24435 7.02768C9.3499 6.47859 9.54097 5.97416 9.81753 5.51437C10.0941 5.0546 10.4562 4.67907 10.9038 4.38779C10.9951 4.31978 11.0657 4.23605 11.1154 4.13657C11.1651 4.03711 11.19 3.91532 11.19 3.77118C11.19 3.62289 11.139 3.49776 11.037 3.39581C10.935 3.29386 10.7769 3.24288 10.5628 3.24288C10.05 3.24288 9.46981 3.35918 8.82215 3.59179C8.17449 3.82438 7.83717 4.27899 7.81018 4.95563C7.81018 5.08251 7.82794 5.20126 7.86346 5.31188C7.899 5.42252 7.92996 5.52401 7.95635 5.61638L8.52878 7.21495ZM4.93279 11.19C5.11245 11.19 5.34031 11.1413 5.61638 11.0438L7.22255 10.4714C7.16571 10.3669 7.12105 10.254 7.08858 10.1327C7.0561 10.0114 7.0358 9.88577 7.02768 9.75584C6.47859 9.65029 5.97416 9.45923 5.51437 9.18266C5.0546 8.90609 4.67907 8.54401 4.38779 8.09641C4.31978 8.00507 4.23021 7.93452 4.11906 7.88478C4.00792 7.83505 3.89196 7.81018 3.77118 7.81018C3.60168 7.81018 3.47126 7.86119 3.37992 7.96319C3.28856 8.0652 3.24288 8.22328 3.24288 8.43744C3.24288 9.16606 3.38723 9.80698 3.67592 10.3602C3.96462 10.9134 4.38357 11.19 4.93279 11.19ZM8.43744 15.7573C9.06795 15.7573 9.6884 15.6231 10.2988 15.3546C10.9092 15.0862 11.2063 14.6266 11.19 13.976C11.19 13.8613 11.1722 13.7537 11.1367 13.6532C11.1012 13.5528 11.0702 13.463 11.0438 13.3838L10.4714 11.7776C10.3567 11.8396 10.2349 11.8855 10.106 11.9154C9.97712 11.9454 9.8604 11.9644 9.75584 11.9725C9.65029 12.5216 9.45923 13.026 9.18266 13.4858C8.90609 13.9456 8.54401 14.3211 8.09641 14.6124C8.01013 14.6753 7.93883 14.7624 7.8825 14.8735C7.82618 14.9847 7.80207 15.0966 7.81018 15.2092C7.8183 15.3554 7.8693 15.4833 7.96319 15.5929C8.05707 15.7025 8.21516 15.7573 8.43744 15.7573ZM15.16 11.19C15.3176 11.19 15.4566 11.1456 15.5769 11.0568C15.6972 10.968 15.7573 10.8033 15.7573 10.5627C15.7573 10.05 15.6445 9.46644 15.419 8.81204C15.1934 8.15763 14.7353 7.82368 14.0446 7.81018C13.9177 7.81018 13.8002 7.82338 13.6921 7.84977C13.584 7.87616 13.4813 7.90508 13.3838 7.93655L11.7852 8.52878C11.837 8.6384 11.8791 8.75512 11.9116 8.87895C11.9441 9.00277 11.9644 9.12457 11.9725 9.24435C12.5216 9.3499 13.026 9.54097 13.4858 9.81753C13.9456 10.0941 14.3211 10.4562 14.6124 10.9038C14.6621 10.985 14.7396 11.053 14.8447 11.1078C14.9498 11.1626 15.0549 11.19 15.16 11.19Z" fill="#AEBAD4"/>
</g>
</svg>
