<svg width="70" height="70" viewBox="0 0 70 70" fill="none" xmlns="http://www.w3.org/2000/svg">
<circle cx="35" cy="35" r="35" fill="#003980" fill-opacity="0.3"/>
<mask id="mask0_876_2473" style="mask-type:alpha" maskUnits="userSpaceOnUse" x="17" y="17" width="36" height="36">
<rect x="17" y="17" width="36" height="36" fill="#D9D9D9"/>
</mask>
<g mask="url(#mask0_876_2473)">
<path d="M20 48.5V21.5H35V27.5H50V48.5H20ZM23 45.5H32V42.5H23V45.5ZM23 39.5H32V36.5H23V39.5ZM23 33.5H32V30.5H23V33.5ZM23 27.5H32V24.5H23V27.5ZM35 45.5H47V30.5H35V45.5ZM38 36.5V33.5H44V36.5H38ZM38 42.5V39.5H44V42.5H38Z" fill="white"/>
</g>
</svg>
