<svg width="70" height="70" viewBox="0 0 70 70" fill="none" xmlns="http://www.w3.org/2000/svg">
<circle cx="35" cy="35" r="35" fill="#003980" fill-opacity="0.3"/>
<mask id="mask0_876_2468" style="mask-type:alpha" maskUnits="userSpaceOnUse" x="17" y="17" width="36" height="36">
<rect x="17" y="17" width="36" height="36" fill="#D9D9D9"/>
</mask>
<g mask="url(#mask0_876_2468)">
<path d="M45.5 35C45.5 32.075 44.4813 29.5938 42.4438 27.5562C40.4062 25.5187 37.925 24.5 35 24.5V21.5C36.875 21.5 38.6313 21.8563 40.2687 22.5688C41.9062 23.2812 43.3313 24.2438 44.5438 25.4563C45.7563 26.6688 46.7188 28.0938 47.4313 29.7313C48.1438 31.3688 48.5 33.125 48.5 35H45.5ZM39.5 35C39.5 33.75 39.0625 32.6875 38.1875 31.8125C37.3125 30.9375 36.25 30.5 35 30.5V27.5C37.075 27.5 38.8438 28.2313 40.3063 29.6938C41.7688 31.1562 42.5 32.925 42.5 35H39.5ZM46.925 48.5C43.7 48.5 40.5563 47.7812 37.4938 46.3438C34.4313 44.9062 31.7188 43.0063 29.3563 40.6437C26.9938 38.2812 25.0938 35.5688 23.6562 32.5063C22.2188 29.4437 21.5 26.3 21.5 23.075C21.5 22.625 21.65 22.25 21.95 21.95C22.25 21.65 22.625 21.5 23.075 21.5H29.15C29.5 21.5 29.8125 21.6125 30.0875 21.8375C30.3625 22.0625 30.525 22.35 30.575 22.7L31.55 27.95C31.6 28.3 31.5938 28.6188 31.5312 28.9062C31.4688 29.1937 31.325 29.45 31.1 29.675L27.4625 33.35C28.5125 35.15 29.8313 36.8375 31.4188 38.4125C33.0063 39.9875 34.75 41.35 36.65 42.5L40.175 38.975C40.4 38.75 40.6938 38.5812 41.0563 38.4688C41.4188 38.3563 41.775 38.325 42.125 38.375L47.3 39.425C47.65 39.5 47.9375 39.6688 48.1625 39.9313C48.3875 40.1938 48.5 40.5 48.5 40.85V46.925C48.5 47.375 48.35 47.75 48.05 48.05C47.75 48.35 47.375 48.5 46.925 48.5ZM26.0375 30.5L28.5125 28.025L27.875 24.5H24.5375C24.6625 25.525 24.8375 26.5375 25.0625 27.5375C25.2875 28.5375 25.6125 29.525 26.0375 30.5ZM39.4625 43.925C40.4375 44.35 41.4313 44.6875 42.4438 44.9375C43.4563 45.1875 44.475 45.35 45.5 45.425V42.125L41.975 41.4125L39.4625 43.925Z" fill="#F7F7F7"/>
</g>
</svg>
