<svg width="70" height="70" viewBox="0 0 70 70" fill="none" xmlns="http://www.w3.org/2000/svg">
<circle cx="35" cy="35" r="35" fill="#003980" fill-opacity="0.3"/>
<mask id="mask0_876_2478" style="mask-type:alpha" maskUnits="userSpaceOnUse" x="17" y="17" width="36" height="36">
<rect x="17" y="17" width="36" height="36" fill="#D9D9D9"/>
</mask>
<g mask="url(#mask0_876_2478)">
<path d="M35 35C35.825 35 36.5313 34.7063 37.1188 34.1188C37.7063 33.5313 38 32.825 38 32C38 31.175 37.7063 30.4688 37.1188 29.8813C36.5313 29.2937 35.825 29 35 29C34.175 29 33.4688 29.2937 32.8813 29.8813C32.2937 30.4688 32 31.175 32 32C32 32.825 32.2937 33.5313 32.8813 34.1188C33.4688 34.7063 34.175 35 35 35ZM35 46.025C38.05 43.225 40.3125 40.6812 41.7875 38.3937C43.2625 36.1062 44 34.075 44 32.3C44 29.575 43.1313 27.3438 41.3937 25.6062C39.6562 23.8688 37.525 23 35 23C32.475 23 30.3438 23.8688 28.6062 25.6062C26.8688 27.3438 26 29.575 26 32.3C26 34.075 26.7375 36.1062 28.2125 38.3937C29.6875 40.6812 31.95 43.225 35 46.025ZM35 50C30.975 46.575 27.9688 43.3937 25.9813 40.4562C23.9938 37.5187 23 34.8 23 32.3C23 28.55 24.2062 25.5625 26.6188 23.3375C29.0313 21.1125 31.825 20 35 20C38.175 20 40.9688 21.1125 43.3813 23.3375C45.7938 25.5625 47 28.55 47 32.3C47 34.8 46.0063 37.5187 44.0187 40.4562C42.0312 43.3937 39.025 46.575 35 50Z" fill="white"/>
</g>
</svg>
